PathFileType	4	(X/Y/Z)	OpenSim_Sub06_EMGBaseline_Gyro.trc
DataRate	CameraRate	NumFrames	NumMarkers	Units	OrigDataRate	OrigDataStartFrame	OrigNumFrames
100	100	34	8	m	100	1034	8270
Frame#	Time	torso_imu_offset_imu	pelvis_imu_offset_imu	tibia_r_imu_offset_imu	femur_r_imu_offset_imu	tibia_l_imu_offset_imu	femur_l_imu_offset_imu	toes_r_imu_offset_imu	toes_l_imu_offset_imu
				X1	Y1	Z1	X2	Y2	Z2	X3	Y3	Z3	X4	Y4	Z4	X5	Y5	Z5	X6	Y6	Z6	X7	Y7	Z7	X8		Y8	Z8	

1034	10.33000000	-0.59222811	0.36292726	0.12630097	0.04561082	-0.51073153	-0.64165524	0.17102669	0.23670888	-2.38147111	-0.33578292	0.80742048	0.44931933	0.56578927	0.09681590	1.28842141	-1.45795946	-0.92267310	0.62027735	0.24197349	-2.87962185	-1.15488284	4.60057517	-2.84881438	0.24653796
1035	10.34000000	-0.55189572	0.38493850	0.23796634	0.28469679	-0.38339437	-0.81079567	0.20364164	0.10722097	-2.39025358	-0.15053410	0.87437053	0.62087694	-1.11385585	0.64365340	1.39510998	-1.34309872	-0.44579378	0.58927920	0.33608402	-3.29686102	-1.35384283	-3.76366007	1.25805609	0.14139626
1036	10.35000000	-0.38394307	0.40346532	0.27089066	0.56072732	-0.20618767	-0.72106129	0.16074474	-0.03206066	-2.34653210	0.09192826	0.93940833	0.80314574	-3.04487154	0.57600197	1.61928857	-0.93814980	-0.24039148	0.14714172	0.51126146	-3.73643830	-1.56587090	0.27644240	-0.67344479	-0.00561477
1037	10.36000000	-0.26575056	0.36926166	0.22807963	0.69793594	-0.07650184	-0.25744254	0.13894221	-0.07364562	-2.37017814	0.29219410	0.95011162	1.02163590	-3.98169673	-0.12078404	1.65866024	-0.49123978	-0.14131639	-0.45173693	0.68536249	-4.20254446	-1.78277973	0.91073160	-0.08039317	-0.17944692
1038	10.37000000	-0.18804301	0.32572440	0.17927053	0.65447579	-0.02542487	0.00974460	0.16545815	0.00101819	-2.44733439	0.43618468	0.95352127	1.31691957	-4.01932835	-0.73164601	1.58031558	-0.26944867	0.02217401	-0.63216064	0.77913262	-4.62634075	-2.03835726	-0.08667505	-0.15073305	-0.18656860
1039	10.38000000	-0.16853761	0.28527010	0.19091572	0.50717442	-0.00367474	0.14497148	0.17778764	0.07225455	-2.52913762	0.54453727	1.04474693	1.57637578	-3.45006874	-0.94720557	1.53215198	-0.21072526	-0.06553959	-0.40508896	0.80675103	-4.98342598	-2.35802261	0.43748369	-0.08125652	-0.22293281
1040	10.39000000	-0.16211554	0.25973802	0.23496108	0.30006677	0.00864791	0.22676518	0.08887202	0.07027456	-2.56560886	0.55234820	1.18158119	1.72883727	-2.26999209	-0.99508209	1.60410006	-0.30654141	-0.33717935	0.10588773	0.88092692	-5.21448756	-2.65277975	0.29875985	-0.05499975	-0.16531551
1041	10.40000000	-0.22943286	0.25306782	0.25926419	0.08251272	-0.01999570	0.26561264	-0.13164771	0.09390823	-2.56435801	0.49974710	1.25301692	1.74361545	-1.01994329	-0.87246675	1.34571265	-0.23768045	-0.55989895	0.68204639	0.81155753	-5.15897871	-2.92218111	0.29770865	-0.06027006	-0.03715983
1042	10.41000000	-0.35971653	0.25935497	0.26547569	-0.11828058	-0.06987759	0.20831004	-0.37924949	0.04284789	-2.50145395	0.46959172	1.21468685	1.68862834	-0.19436559	-0.58663675	0.81694105	0.02231785	-0.67704541	1.04900185	0.93306784	-4.92559088	-3.21697727	-0.14499125	0.05716948	0.13927537
1043	10.42000000	-0.49006312	0.24447301	0.27099138	-0.30813987	-0.10900330	0.10983523	-0.56217767	-0.07626439	-2.31532356	0.43730700	1.11323885	1.61419242	0.31439009	-0.13028851	0.30515953	0.20034175	-0.68061851	1.21470199	1.11563419	-4.47942491	-3.41409742	0.16338291	-0.00389562	0.20734811
1044	10.43000000	-0.57364903	0.20115042	0.27104504	-0.46302721	-0.08881637	0.06189517	-0.72059860	-0.18193384	-1.94928907	0.42444880	0.96804932	1.53828154	1.20525363	0.13860930	0.23623108	0.37291332	-0.57157234	1.35928092	1.21603058	-4.27445379	-3.44632102	-0.10800008	-0.01090125	0.17340065
1045	10.44000000	-0.58150080	0.16761063	0.24055525	-0.53516435	-0.02079250	0.00016138	-0.86676726	-0.21423830	-1.49481197	0.47232439	0.83775998	1.48009716	2.09631488	0.08986658	0.53572582	0.74668526	-0.33348811	1.42289429	1.17989155	-4.05998056	-3.38346767	0.13851404	-0.15870337	0.09885180
1046	10.45000000	-0.55401353	0.15372896	0.19140257	-0.53081166	0.04152009	-0.06373584	-0.99974876	-0.15937736	-1.10728836	0.47355048	0.74260168	1.45476491	2.25962455	0.08097608	0.96011724	1.09141115	-0.10021306	1.22548982	-0.22807027	-2.65277681	-2.56609663	0.11380921	-0.22818376	0.05243679
1047	10.46000000	-0.51020491	0.14822835	0.12940183	-0.46959207	0.08336434	-0.09951553	-1.13819789	-0.12482301	-0.84171321	0.42764859	0.70431563	1.44992644	1.77608382	0.12783055	1.28445504	1.00853259	-0.04391110	0.91427656	-1.62524653	0.35568900	-1.01094065	0.17679879	-0.26066620	0.02770767
1048	10.47000000	-0.43969930	0.12354799	0.05318629	-0.35760909	0.07446118	-0.06486822	-1.39111025	-0.20614259	-0.63783131	0.30782888	0.72283761	1.45893021	1.06349464	0.05409029	1.31749718	0.54595511	-0.14320791	0.73840247	-1.29881651	2.43114421	0.21550361	0.08911015	-0.27161289	0.02883959
1049	10.48000000	-0.39039234	0.09076883	-0.01143756	-0.23648399	0.04753444	0.00203196	-1.82323302	-0.50858213	-0.51918161	0.21322344	0.71698511	1.45207029	0.16247482	-0.04248336	1.09219372	0.02653423	-0.25145008	0.68121009	-0.61146830	2.10926871	0.27268096	0.12020611	-0.24231188	0.02429776
1050	10.49000000	-0.38731554	0.04336847	-0.06210758	-0.17509529	0.05383089	0.11007367	-2.60308040	-1.10843323	-0.33672038	0.22916585	0.68595437	1.45677496	-0.82818055	-0.09375158	0.62528349	-0.45291030	-0.30250985	0.62507516	0.16488392	1.54399198	0.18543007	0.04172513	-0.22501146	0.04702306
1051	10.50000000	-0.42362270	0.01527980	-0.10959443	-0.16648190	0.09025387	0.21392141	-3.40293671	-1.60702873	0.10027942	0.22299456	0.70652953	1.48782346	-1.55057448	-0.19777946	0.24639741	-0.79056753	-0.31269875	0.66201113	0.46099359	1.56137722	0.45623963	0.00385667	-0.19927785	0.06509990
1052	10.51000000	-0.48867883	-0.01681820	-0.15645608	-0.18498853	0.14124326	0.28164641	-3.64968969	-1.56272361	0.69719943	0.10512410	0.74264213	1.48929556	-1.96117572	-0.30373292	0.18742942	-0.90431699	-0.32253921	0.81418298	0.32670727	1.88365121	1.02045153	-0.02716057	-0.20187319	0.08117373
1053	10.52000000	-0.55606337	-0.05534591	-0.20900818	-0.22722422	0.19700715	0.33231625	-3.28446964	-1.16178412	1.31652539	-0.06048000	0.75507040	1.46357359	-2.06797247	-0.37477343	0.29088760	-0.79738446	-0.36710317	0.95573302	-0.00596406	2.33939925	1.59665067	-0.01381896	-0.16765998	0.06802784
1054	10.53000000	-0.61038962	-0.10302748	-0.23885758	-0.30370966	0.22161382	0.35715616	-2.61149073	-0.75592958	1.82110868	-0.26919036	0.74600731	1.38922998	-1.81519406	-0.32608292	0.38661371	-0.53624768	-0.42223289	1.02407065	-0.28642402	2.78364273	1.96992068	-0.01166261	-0.20077482	0.06268310
1055	10.54000000	-0.66368291	-0.14299544	-0.24548692	-0.38652279	0.21468034	0.35414659	-1.85043476	-0.47044209	2.13391222	-0.49214756	0.74786097	1.30493168	-1.36525445	-0.19972525	0.45306652	-0.27949825	-0.41217361	1.04120788	-0.41080216	3.16022623	2.09991017	-0.07053718	-0.20552523	0.07753896
1056	10.55000000	-0.71981133	-0.16149460	-0.22876342	-0.46019327	0.20179294	0.30961816	-0.99653658	-0.27258496	2.34603987	-0.70450975	0.73575133	1.23931296	-0.87271242	-0.10003338	0.52397571	-0.11032685	-0.31434716	1.04007433	-0.51338939	3.44323227	2.05569095	-0.03602219	-0.19333173	0.09097911
1057	10.56000000	-0.76312553	-0.18449800	-0.21227728	-0.50474701	0.19600426	0.26078958	-0.15066883	-0.14352957	2.60002228	-0.87741553	0.73218594	1.23420845	-0.38069900	-0.03561439	0.58283027	-0.00285461	-0.20360442	1.03851579	-0.75464166	3.74906337	1.96876046	-0.05467317	-0.22499947	0.10835584
1058	10.57000000	-0.75579013	-0.19541129	-0.19326514	-0.50880356	0.20056499	0.20264350	0.55367779	-0.05727217	2.91135086	-1.01875268	0.69670045	1.23991495	0.10749425	0.01272336	0.59936847	0.07111581	-0.15690540	1.03328309	-1.10925468	4.03964055	1.87281304	-0.04376182	-0.19987331	0.11864568
1059	10.58000000	-0.73819271	-0.20696178	-0.19016461	-0.49367357	0.20680622	0.13625943	1.04896142	0.00602629	3.20603200	-1.12609351	0.60705328	1.23689155	0.48082479	0.08127425	0.59418824	0.09580385	-0.18436756	1.03037292	-1.45988898	4.24024513	1.77259639	-0.04610246	-0.20538846	0.12628427
1060	10.59000000	-0.71711401	-0.22085992	-0.21353475	-0.46723538	0.20571487	0.06946368	1.33417819	0.06847467	3.47639866	-1.17598700	0.50562319	1.22452279	0.69720155	0.13459042	0.59679634	0.03382327	-0.21986674	1.01704517	-1.71553021	4.32763391	1.67549591	-0.07905094	-0.21525724	0.14925476
1061	10.60000000	-0.66197158	-0.22794865	-0.24271451	-0.45620430	0.20397107	-0.00384104	1.42659385	0.11771876	3.73928571	-1.17014798	0.44303783	1.21139532	0.72518438	0.16481147	0.60348815	-0.06581973	-0.21288558	0.98551083	-1.87580543	4.31802999	1.63883481	-0.06206874	-0.18401152	0.16254944
1062	10.61000000	-0.60907807	-0.23167562	-0.26991936	-0.45223516	0.21374796	-0.04404300	1.35641471	0.16870819	4.00107335	-1.07581242	0.40810368	1.14798380	0.59428663	0.15606685	0.60426928	-0.11617003	-0.15529394	0.96181025	-1.90564649	4.28455676	1.65661509	-0.09803501	-0.17252863	0.18320579
1063	10.62000000	-0.56809454	-0.22818263	-0.28991008	-0.43510563	0.23931593	-0.09238814	1.16218090	0.19286508	4.26256583	-0.84867023	0.37793711	0.98395929	0.38253956	0.12160348	0.58752996	-0.07986411	-0.10248670	0.96131555	-1.87710056	4.27565085	1.72270742	-0.05123682	-0.14150492	0.17478153
1064	10.63000000	-0.54042566	-0.22978265	-0.29849373	-0.41712894	0.25564284	-0.10811560	0.87883191	0.13916614	4.49280136	-0.51442038	0.32757828	0.76223646	0.12962911	0.08301853	0.55089648	-0.00935326	-0.08128598	1.00205564	-1.78542166	4.26097939	1.78658610	-0.08772289	-0.14015121	0.17836253
1065	10.64000000	-0.51783401	-0.22504846	-0.30230872	-0.37487725	0.25550742	-0.12015702	0.40767557	0.00421614	4.70567959	-0.21440269	0.22898632	0.53406101	-0.13313185	0.05228850	0.49181843	0.02372424	-0.08038881	1.05650889	-1.58169859	4.17059229	1.82809267	-0.05627989	-0.12669796	0.16896163
1066	10.65000000	-0.50640415	-0.22439307	-0.29099265	-0.32538546	0.22882286	-0.10176881	-0.09718796	-0.03130172	4.86384607	-0.00658911	0.09411646	0.30025408	-0.36220391	0.02736801	0.44449269	0.00295557	-0.09710198	1.12696151	-1.24535313	3.93610526	1.87559321	-0.06838144	-0.14987224	0.18326326
1067	10.66000000	-0.50034737	-0.21284625	-0.28104709	-0.28655145	0.16952809	-0.07750488	-0.17957820	0.13759852	4.99795780	0.15534227	-0.03767168	0.06969073	-0.47216512	0.00266156	0.43399509	-0.04171768	-0.11981053	1.18775198	-0.95424046	3.57539844	1.99662966	-0.06563273	-0.11985380	0.17729789
